<?xml version="1.0" encoding="UTF-8" standalone="no"?>
<!-- Created with Inkscape (http://www.inkscape.org/) -->
<svg xmlns:svg="http://www.w3.org/2000/svg" xmlns="http://www.w3.org/2000/svg" version="1.1" width="235" height="140" id="svg3099">
  <defs id="defs3101"/>
  <g transform="translate(-205.71018,-400.38197)" id="layer1">
    <path d="m 290.44328,402.43447 c -8.59375,0 -14.0125,6.175 -14.0125,14.025 0,7.46875 5.41875,14.0125 14.0125,14.0125 8.4125,0 13.8375,-6.54375 13.8375,-14.0125 0,-7.85 -5.425,-14.025 -13.8375,-14.025" id="path168" style="fill:#f36f21;fill-opacity:1;fill-rule:nonzero;stroke:none"/>
    <path d="m 296.44143,445.71697 -48.4625,0 0,-35.9375 c 0,-3.30625 -2.70625,-6.0125 -6.025,-6.0125 l -11.9625,0 c -3.30625,0 -6.01875,2.70625 -6.01875,6.0125 l 0,35.9375 -9.05,0 c -3.3125,0 -6.01875,2.7125 -6.01875,6.0125 l 0,8.2375 c 0,3.30625 2.70625,6.00625 6.01875,6.00625 l 9.05,0 0,46.19375 c 0,17.7 8.075,26.1625 26.36875,26.1625 5.2375,0 9.7,-0.725 13.925,-1.7375 2.2,-0.5125 3.19375,-2.5875 3.1375,-4.01875 -0.15,-3.625 -0.525,-8.9125 -0.525,-10.59375 0,-1.79375 -1.28125,-3.5875 -4.49375,-3.20625 -2.125,0.256 -2.69375,0.275 -4.5625,0.275 -7.48125,0 -9.84375,-2.95 -9.84375,-9.24375 l 0,-43.83125 30.475,0 0,64.7625 c 0,3.3125 2.7125,6.01875 6.00625,6.01875 l 11.98125,0 c 3.3,0 6.0125,-2.70625 6.0125,-6.01875 l 0,-79.00625 c 0,-3.3 -2.7125,-6.0125 -6.0125,-6.0125" id="path172" style="fill:#f36f21;fill-opacity:1;fill-rule:nonzero;stroke:none"/>
    <path d="m 423.69143,510.17132 c -8.23125,0 -13.8375,5.6125 -13.8375,13.83125 0,8.225 5.60625,13.83125 13.8375,13.83125 8.225,0 13.825,-5.60625 13.825,-13.83125 0,-8.21875 -5.6,-13.83125 -13.825,-13.83125" id="path176" style="fill:#f36f21;fill-opacity:1;fill-rule:nonzero;stroke:none"/>
    <path d="m 419.31768,459.97447 0,-8.24375 c 0,-3.3 -2.7125,-6.0125 -6.025,-6.0125 l -16.23125,0 0,-13.43125 c 0,-6.3 5.7,-9.24375 13.1875,-9.24375 1.88125,0 2.425,0.1875 4.5625,0.275 3.2,0.1315 5.0125,-2.21875 5.0125,-4.0125 0,-1.6875 0.25,-4.35 0.3125,-8.35625 0.056,-2.925 -2.125,-5.4625 -5.39375,-6.15625 -4.3375,-0.925 -10.0875,-1.025 -15.3125,-1.025 -18.3,0 -26.36875,8.45625 -26.36875,26.15625 l -0.075,15.79375 -26.825,0 0,-13.43125 c 0,-6.3 5.70625,-9.24375 13.18125,-9.24375 1.875,0 2.4375,0.1875 4.5625,0.275 3.19375,0.1315 5.0125,-2.21875 5.0125,-4.0125 0,-1.6875 0.244,-4.35 0.3125,-8.35625 0.05,-2.925 -2.13125,-5.4625 -5.39375,-6.15625 -4.3375,-0.925 -10.08125,-1.025 -15.325,-1.025 -18.29375,0 -26.3625,8.45625 -26.3625,26.15625 l -0.069,15.79375 -9.0625,0 c -3.3,0 -6.00625,2.7125 -6.00625,6.0125 l 0,8.24375 c 0,3.30625 2.70625,6 6.00625,6 l 9.0625,0 0,64.7625 c 0,3.3125 2.70625,6.01875 6.01875,6.01875 l 11.96875,0 c 3.30625,0 6.0125,-2.70625 6.0125,-6.01875 l 0.081,-64.7625 26.825,0 0,64.7625 c 0,3.3125 2.70625,6.01875 6.01875,6.01875 l 11.9625,0 c 3.30625,0 6.01875,-2.70625 6.01875,-6.01875 l 0,-64.7625 16.30625,0 c 3.3125,0 6.025,-2.69375 6.025,-6" id="path180" style="fill:#f36f21;fill-opacity:1;fill-rule:nonzero;stroke:none"/>
  </g>
</svg>